<svg width="91" height="91" viewBox="0 0 91 91" fill="none" xmlns="http://www.w3.org/2000/svg">
<rect x="4" y="4" width="83" height="83" rx="41.5" fill="white"/>
<rect x="4" y="4" width="83" height="83" rx="41.5" stroke="#8A97EE" stroke-width="8"/>
<path opacity="0.4" d="M53.5715 28.1364L59.8411 25.7165L62.151 19.5569C62.261 19.0069 62.811 18.6769 63.3609 18.6769C63.8009 18.6769 64.3509 19.0069 64.4609 19.5569L66.8807 25.7165L73.0404 28.1364C73.5903 28.2464 73.9203 28.7963 73.9203 29.2363C73.9203 29.7863 73.5903 30.3362 73.0404 30.4462L66.8807 32.7561L64.4609 39.0257C64.3509 39.4657 63.8009 39.7956 63.3609 39.7956C62.811 39.7956 62.261 39.4657 62.151 39.0257L59.8411 32.7561L53.5715 30.4462C53.1315 30.3362 52.8015 29.7863 52.8015 29.2363C52.8015 28.7963 53.1315 28.2464 53.5715 28.1364Z" fill="#3C51E2"/>
<path opacity="0.4" d="M23.6008 41.5586L25.3118 36.9959C25.3932 36.5885 25.8006 36.3441 26.208 36.3441C26.5339 36.3441 26.9413 36.5885 27.0228 36.9959L28.8153 41.5586L33.378 43.3511C33.7854 43.4326 34.0298 43.84 34.0298 44.1659C34.0298 44.5732 33.7854 44.9806 33.378 45.0621L28.8153 46.7731L27.0228 51.4173C26.9413 51.7432 26.5339 51.9876 26.208 51.9876C25.8006 51.9876 25.3932 51.7432 25.3118 51.4173L23.6008 46.7731L18.9566 45.0621C18.6307 44.9806 18.3862 44.5732 18.3862 44.1659C18.3862 43.84 18.6307 43.4326 18.9566 43.3511L23.6008 41.5586Z" fill="#3C51E2"/>
<path d="M45.4698 36.3441L62.19 71.8182L44.9469 66.4791L50.0364 63.3921L53.7709 64.5586L45.4683 46.9455L38.1412 62.4912L47.4551 56.92L49.3687 60.9748L27.7742 73.8885L45.4698 36.3441Z" fill="#3C51E2"/>
</svg>
