<svg width="331" height="340" viewBox="0 0 331 340" fill="none" xmlns="http://www.w3.org/2000/svg">
<g opacity="0.7" filter="url(#filter0_f_0_39295)">
<path d="M165.5 210.782C185.583 210.782 201.863 192.505 201.863 169.959C201.863 147.413 185.583 129.136 165.5 129.136C145.417 129.136 129.136 147.413 129.136 169.959C129.136 192.505 145.417 210.782 165.5 210.782Z" fill="#3C51E2"/>
</g>
<ellipse cx="168.661" cy="226.454" rx="87.7055" ry="6.07751" fill="#3C51E2"/>
<path d="M171.656 136.559L187.072 130.313L192.535 114.977C192.785 113.611 194.132 112.772 195.493 112.749C196.582 112.731 197.957 113.525 198.252 114.882L204.494 130.023L219.837 135.757C221.202 136.007 222.041 137.354 222.06 138.443C222.082 139.804 221.288 141.178 219.932 141.473L204.783 147.442L199.053 163.055C198.799 164.148 197.451 164.987 196.362 165.005C195.001 165.028 193.627 164.234 193.336 163.15L187.362 147.732L171.751 142.274C170.658 142.02 169.819 140.673 169.796 139.312C169.778 138.223 170.572 136.849 171.656 136.559Z" fill="#3C51E2"/>
<path d="M97.8273 158.255L101.874 146.895C102.059 145.883 103.057 145.262 104.065 145.245C104.872 145.232 105.89 145.82 106.108 146.824L110.732 158.04L122.097 162.288C123.109 162.473 123.73 163.471 123.744 164.277C123.76 165.285 123.172 166.303 122.168 166.522L110.946 170.943L106.702 182.508C106.513 183.318 105.515 183.94 104.709 183.953C103.701 183.97 102.682 183.382 102.467 182.579L98.0419 171.158L86.4784 167.115C85.6685 166.927 85.0469 165.929 85.0301 164.921C85.0167 164.115 85.6048 163.097 86.408 162.882L97.8273 158.255Z" fill="#3C51E2"/>
<path d="M151.73 135.985L194.568 223.073L151.677 210.572L164.145 202.724L173.435 205.457L152.163 162.217L134.67 200.985L157.49 186.816L162.393 196.77L109.483 229.613L151.73 135.985Z" fill="#3C51E2"/>
<path d="M169.237 134.139L184.653 127.893L190.116 112.557C190.365 111.192 191.713 110.352 193.074 110.33C194.162 110.312 195.537 111.105 195.832 112.462L202.074 127.603L217.417 133.338C218.782 133.587 219.622 134.934 219.64 136.023C219.662 137.384 218.868 138.758 217.512 139.053L202.364 145.022L196.633 160.635C196.379 161.728 195.031 162.567 193.943 162.586C192.582 162.608 191.207 161.814 190.917 160.73L184.942 145.312L169.332 139.854C168.238 139.6 167.399 138.253 167.376 136.892C167.358 135.804 168.152 134.429 169.237 134.139Z" fill="white"/>
<path d="M218.836 136.036C218.823 135.254 218.19 134.297 217.273 134.129L217.137 134.092L201.794 128.357L201.331 127.91L195.09 112.768L195.047 112.633C194.849 111.722 193.871 111.121 193.088 111.134C191.988 111.153 191.069 111.823 190.908 112.702L190.875 112.827L185.412 128.164L184.957 128.639L169.54 134.884L169.446 134.915C169.157 134.993 168.833 135.242 168.571 135.651C168.31 136.056 168.176 136.518 168.182 136.879C168.191 137.406 168.36 137.936 168.629 138.351C168.867 138.719 169.148 138.943 169.406 139.038L169.598 139.095L185.21 144.553L185.694 145.021L191.668 160.44L191.695 160.522C191.771 160.806 192.015 161.125 192.445 161.384C192.868 161.639 193.404 161.79 193.931 161.781C194.291 161.775 194.749 161.626 195.145 161.352C195.545 161.076 195.783 160.744 195.851 160.453L195.879 160.358L201.61 144.745L202.07 144.273L217.219 138.304L217.342 138.267C218.215 138.077 218.855 137.137 218.836 136.036ZM220.445 136.01C220.472 137.605 219.553 139.379 217.77 139.816L202.996 145.637L197.4 160.882C197.199 161.653 196.652 162.266 196.059 162.675C195.446 163.099 194.686 163.378 193.957 163.39C193.123 163.404 192.291 163.17 191.614 162.762C190.961 162.369 190.386 161.77 190.159 160.999L184.326 145.949L169.088 140.621C168.311 140.419 167.693 139.865 167.278 139.226C166.849 138.563 166.587 137.739 166.573 136.906C166.561 136.177 166.815 135.408 167.218 134.781C167.608 134.173 168.204 133.605 168.971 133.379L184.017 127.282L189.348 112.316C189.73 110.526 191.468 109.552 193.061 109.525C194.431 109.503 196.157 110.454 196.592 112.192L202.685 126.973L217.661 132.569C219.414 132.945 220.423 134.64 220.445 136.01Z" fill="#3C51E2"/>
<path d="M95.4076 155.836L99.4541 144.476C99.639 143.464 100.637 142.843 101.645 142.826C102.452 142.812 103.47 143.401 103.688 144.405L108.312 155.621L119.677 159.869C120.689 160.054 121.311 161.052 121.324 161.858C121.341 162.866 120.753 163.884 119.748 164.102L108.527 168.524L104.282 180.089C104.094 180.899 103.096 181.52 102.289 181.534C101.281 181.551 100.263 180.963 100.048 180.16L95.6222 168.739L84.0587 164.696C83.2488 164.508 82.6271 163.51 82.6104 162.502C82.597 161.695 83.1851 160.677 83.9883 160.462L95.4076 155.836Z" fill="white"/>
<path d="M120.519 161.871C120.511 161.371 120.095 160.763 119.532 160.66L119.396 160.622L108.03 156.375L107.568 155.928L102.944 144.711L102.902 144.576C102.78 144.017 102.158 143.622 101.658 143.63C100.91 143.643 100.341 144.095 100.245 144.62L100.211 144.746L96.1655 156.106L95.709 156.581L84.2899 161.207L84.1959 161.24C84.0478 161.279 83.846 161.42 83.6694 161.695C83.4949 161.966 83.4107 162.269 83.4143 162.488C83.4202 162.839 83.5337 163.194 83.7119 163.469C83.8487 163.68 83.9965 163.805 84.1226 163.868L84.2404 163.913L84.3235 163.937L95.8867 167.979L96.3719 168.448L100.797 179.869L100.824 179.952C100.862 180.094 100.998 180.292 101.285 180.465C101.566 180.634 101.925 180.735 102.275 180.73C102.495 180.726 102.794 180.632 103.06 180.448C103.328 180.263 103.463 180.056 103.497 179.907L103.527 179.812L107.771 168.247L108.231 167.775L119.453 163.354L119.576 163.317C120.098 163.203 120.531 162.619 120.519 161.871ZM122.128 161.845C122.149 163.086 121.436 164.499 120.011 164.862L109.156 169.14L105.041 180.352C104.87 180.973 104.433 181.455 103.974 181.772C103.492 182.105 102.889 182.329 102.302 182.338C101.644 182.349 100.989 182.165 100.455 181.843C99.9502 181.539 99.4912 181.069 99.2975 180.451L95.0048 169.375L83.7922 165.456L83.7922 165.454C83.1678 165.281 82.6823 164.839 82.3617 164.344C82.0224 163.821 81.8164 163.173 81.8054 162.515C81.7957 161.928 81.9991 161.319 82.3161 160.826C82.616 160.359 83.0792 159.909 83.6885 159.716L94.7695 155.226L98.6846 144.236C99.0003 142.8 100.39 142.042 101.631 142.022C102.719 142.004 104.093 142.751 104.448 144.139L108.921 154.99L119.919 159.1C121.318 159.41 122.11 160.757 122.128 161.845Z" fill="#3C51E2"/>
<path d="M149.311 133.565L192.149 220.654L149.257 208.152L161.725 200.304L171.015 203.037L149.743 159.797L132.25 198.565L155.07 184.396L159.973 194.35L107.064 227.193L149.311 133.565Z" fill="white"/>
<path d="M150.032 133.21L192.87 220.298L191.922 221.425L149.031 208.924L148.828 207.471L161.296 199.623L161.951 199.533L169.482 201.747L149.774 161.682L134.069 196.487L154.645 183.713L155.792 184.04L160.694 193.995L160.396 195.034L107.487 227.875L106.33 226.861L148.576 133.234L150.032 133.21ZM108.882 225.115L158.927 194.05L154.739 185.547L132.674 199.248L131.516 198.234L149.009 159.466L150.465 159.442L171.736 202.682L170.787 203.808L161.845 201.178L151.198 207.879L190.62 219.369L149.341 135.45L108.882 225.115Z" fill="#3C51E2"/>
<defs>
<filter id="filter0_f_0_39295" x="-0.000137652" y="-0.000137652" width="331" height="339.919" filterUnits="userSpaceOnUse" color-interpolation-filters="sRGB">
<feFlood flood-opacity="0" result="BackgroundImageFix"/>
<feBlend mode="normal" in="SourceGraphic" in2="BackgroundImageFix" result="shape"/>
<feGaussianBlur stdDeviation="64.4171" result="effect1_foregroundBlur_0_39295"/>
</filter>
</defs>
</svg>
